<?xml version="1.0" standalone="no"?><svg xmlns="http://www.w3.org/2000/svg" viewBox="0 0 1440 320"><path fill="#0099ff" fill-opacity="1" d="M0,64L20,96C40,128,80,192,120,234.7C160,277,200,299,240,298.7C280,299,320,277,360,277.3C400,277,440,299,480,304C520,309,560,299,600,298.7C640,299,680,309,720,282.7C760,256,800,192,840,176C880,160,920,192,960,186.7C1000,181,1040,139,1080,122.7C1120,107,1160,117,1200,138.7C1240,160,1280,192,1320,176C1360,160,1400,96,1420,64L1440,32L1440,320L1420,320C1400,320,1360,320,1320,320C1280,320,1240,320,1200,320C1160,320,1120,320,1080,320C1040,320,1000,320,960,320C920,320,880,320,840,320C800,320,760,320,720,320C680,320,640,320,600,320C560,320,520,320,480,320C440,320,400,320,360,320C320,320,280,320,240,320C200,320,160,320,120,320C80,320,40,320,20,320L0,320Z"></path></svg>